<?xml version="1.0" standalone="no"?>
<!DOCTYPE svg PUBLIC "-//W3C//DTD SVG 20010904//EN"
 "http://www.w3.org/TR/2001/REC-SVG-20010904/DTD/svg10.dtd">
<svg version="1.0" xmlns="http://www.w3.org/2000/svg"
 width="170.000000pt" height="170.000000pt" viewBox="0 0 170.000000 170.000000"
 preserveAspectRatio="xMidYMid meet">
<metadata>
Created by potrace 1.14, written by Peter Selinger 2001-2017
</metadata>
<g transform="translate(0.000000,170.000000) scale(0.100000,-0.100000)"
fill="#000000" stroke="none">
<path d="M1002 1293 c3 -52 12 -92 26 -118 19 -38 77 -97 133 -136 22 -15 22
-19 11 -56 -17 -56 -56 -93 -99 -93 -28 0 -47 11 -95 53 -126 113 -234 159
-378 164 -64 1 -99 7 -110 16 -34 32 -70 76 -70 86 0 6 -9 20 -19 30 -11 11
-25 29 -31 41 -16 30 -61 80 -72 80 -22 0 -37 -68 -32 -150 3 -46 8 -89 12
-94 6 -11 11 -54 12 -110 0 -16 5 -36 10 -46 7 -12 4 -29 -10 -57 -48 -101
-53 -249 -11 -336 30 -62 93 -126 166 -168 58 -34 59 -36 76 -101 19 -78 46
-124 96 -169 l37 -32 12 60 c15 72 36 116 66 137 36 26 67 19 116 -25 58 -52
131 -86 211 -100 92 -17 96 -12 54 70 -21 40 -38 89 -40 118 -5 48 -4 49 36
77 92 64 193 199 231 309 14 39 24 99 27 162 l6 100 51 30 c68 40 108 105 110
177 l1 53 -52 -1 c-79 -2 -117 -12 -158 -40 l-38 -25 -41 41 c-42 44 -102 78
-171 100 -22 7 -44 16 -49 21 -23 21 -28 5 -24 -68z m197 -84 c17 -17 41 -49
52 -71 l21 -41 41 41 c50 47 68 57 125 66 39 6 42 5 42 -17 0 -73 -135 -168
-178 -125 -20 20 -23 3 -7 -42 8 -23 15 -73 15 -109 0 -129 -54 -251 -162
-365 -63 -67 -67 -69 -68 -43 0 15 -4 27 -8 27 -18 0 -35 -58 -39 -135 -5 -75
0 -103 32 -178 7 -16 0 -15 -60 8 -75 28 -154 81 -181 122 -9 15 -23 46 -29
68 -15 50 -31 44 -28 -11 l2 -40 -67 7 c-76 9 -121 23 -209 67 -102 52 -145
98 -178 193 l-16 44 33 -32 c52 -51 112 -72 198 -73 l75 -1 24 -39 c23 -36 48
-56 58 -46 2 2 -5 19 -16 37 -12 19 -21 48 -21 65 l0 31 -69 -5 c-118 -8 -207
39 -255 135 -21 42 -20 54 5 114 21 48 23 49 64 49 65 0 125 37 155 96 l26 49
60 -6 c62 -7 147 -36 201 -68 17 -11 50 -44 72 -74 67 -91 130 -122 196 -97
23 9 26 13 15 20 -13 8 -13 10 1 10 19 0 72 55 93 97 9 18 16 47 16 66 0 19 7
40 15 47 24 20 18 30 -18 30 -34 0 -92 35 -129 76 -23 26 -48 87 -48 117 l0
24 59 -28 c32 -15 73 -42 90 -60z m-824 1 c4 -6 -8 -10 -29 -10 -19 0 -38 5
-41 10 -4 6 8 10 29 10 19 0 38 -4 41 -10z m38 -62 c30 -15 18 -28 -27 -28
-54 0 -76 8 -76 26 0 17 71 18 103 2z m38 -85 c-39 -16 -123 -13 -128 4 -3 8
16 13 64 15 88 4 107 -2 64 -19z m50 -52 c-28 -52 -161 -72 -161 -25 0 10 13
14 43 14 23 0 60 9 82 19 46 21 51 20 36 -8z m582 -188 c-7 -2 -19 -2 -25 0
-7 3 -2 5 12 5 14 0 19 -2 13 -5z m-451 -499 l68 -17 -20 -27 c-11 -15 -25
-48 -32 -74 -7 -25 -15 -46 -18 -46 -14 0 -64 101 -73 148 -8 37 -11 37 75 16z"/>
<path d="M1240 915 c-16 -19 -5 -47 17 -43 11 2 18 12 18 27 0 29 -17 37 -35
16z"/>
<path d="M458 865 c-21 -28 -25 -56 -6 -37 7 7 18 12 26 12 14 0 13 -12 -4
-55 -7 -19 -7 -19 13 -2 16 14 22 15 31 4 6 -7 9 -23 5 -35 -6 -24 12 -31 21
-7 8 22 55 -2 62 -32 7 -28 24 -31 24 -3 0 29 55 28 63 -1 3 -12 10 -18 17
-14 6 4 8 15 5 26 -5 14 0 21 17 28 13 5 30 16 37 25 12 14 5 15 -66 9 -68 -5
-84 -3 -120 15 -22 12 -51 37 -63 57 -25 41 -39 43 -62 10z"/>
<path d="M1189 814 c-15 -19 -2 -47 26 -52 25 -5 38 13 31 42 -7 30 -36 35
-57 10z m41 -24 c0 -5 -4 -10 -10 -10 -5 0 -10 5 -10 10 0 6 5 10 10 10 6 0
10 -4 10 -10z"/>
<path d="M1100 740 c0 -5 8 -10 19 -10 20 0 48 -27 37 -37 -3 -3 -6 -1 -6 5 0
20 -40 25 -61 6 -24 -22 -24 -46 -1 -67 26 -24 68 -21 86 5 22 32 20 55 -9 83
-24 25 -65 34 -65 15z m30 -75 c0 -8 -4 -15 -10 -15 -5 0 -10 7 -10 15 0 8 5
15 10 15 6 0 10 -7 10 -15z"/>
<path d="M735 635 c-53 -53 -11 -135 70 -135 27 0 84 44 73 56 -5 4 -16 0 -26
-9 -29 -26 -78 -22 -98 8 -15 23 -15 27 0 50 17 26 32 30 54 16 19 -11 11 -45
-11 -49 -20 -4 -24 24 -4 31 6 2 9 8 5 12 -13 14 -38 -4 -38 -28 0 -45 43 -62
73 -29 23 25 21 58 -3 82 -27 27 -66 25 -95 -5z"/>
</g>
</svg>
